<svg viewBox="0 0 640 640" fill="none" xmlns="http://www.w3.org/2000/svg">
<defs><linearGradient id="a" x1="90" y1="100" x2="555" y2="545"><stop stop-color="#67E8F9"/><stop offset=".55" stop-color="#34D399"/><stop offset="1" stop-color="#A78BFA"/></linearGradient><radialGradient id="b"><stop stop-color="#ECFEFF"/><stop offset=".25" stop-color="#22D3EE"/><stop offset="1" stop-color="#22D3EE" stop-opacity="0"/></radialGradient><style>.o{stroke-dasharray:8 14;animation:f 16s linear infinite}.r{animation-direction:reverse;animation-duration:23s}.n{transform-box:fill-box;transform-origin:center;animation:p 4s ease-in-out infinite}.n:nth-of-type(2){animation-delay:-1.3s}.n:nth-of-type(3){animation-delay:-2.6s}@keyframes f{to{stroke-dashoffset:-220}}@keyframes p{50%{opacity:1;transform:scale(1.22)}}@media(prefers-reduced-motion:reduce){.o,.n{animation:none}}</style></defs>
<circle cx="320" cy="320" r="76" fill="#08202D" stroke="url(#a)" stroke-opacity=".65"/><circle cx="320" cy="320" r="48" fill="url(#b)" opacity=".32"/><circle cx="320" cy="320" r="9" fill="#ECFEFF"/>
<ellipse class="o" cx="320" cy="320" rx="246" ry="118" transform="rotate(-18 320 320)" stroke="url(#a)" stroke-width="1.5"/><ellipse class="o r" cx="320" cy="320" rx="205" ry="274" transform="rotate(42 320 320)" stroke="url(#a)" stroke-opacity=".7"/>
<path d="M93 415C186 118 438 73 567 278M126 179c168 10 329 118 393 290" stroke="#A5F3FC" stroke-opacity=".13" stroke-dasharray="3 10"/>
<g fill="#06131F" stroke="#A5F3FC"><circle cx="95" cy="413" r="6"/><circle cx="218" cy="117" r="5"/><circle cx="521" cy="167" r="6"/><circle cx="560" cy="430" r="5"/><circle cx="196" cy="520" r="6"/></g>
<g class="n" opacity=".65"><circle cx="95" cy="413" r="18" fill="url(#b)"/><circle cx="95" cy="413" r="3" fill="#ECFEFF"/></g><g class="n" opacity=".65"><circle cx="521" cy="167" r="18" fill="url(#b)"/><circle cx="521" cy="167" r="3" fill="#ECFEFF"/></g><g class="n" opacity=".65"><circle cx="560" cy="430" r="18" fill="url(#b)"/><circle cx="560" cy="430" r="3" fill="#ECFEFF"/></g>
</svg>
