<svg width="96" height="96" viewBox="0 0 96 96" fill="none" xmlns="http://www.w3.org/2000/svg"><rect x="1" y="1" width="94" height="94" rx="28" fill="#172554" fill-opacity=".45" stroke="#60A5FA" stroke-opacity=".35"/><g stroke="#BFDBFE" stroke-width="3"><path d="m48 16 16 9v18l-16 9-16-9V25l16-9Z"/><path d="m27 51 16 9v18l-16 9-16-9V60l16-9Zm42 0 16 9v18l-16 9-16-9V60l16-9Z"/><path d="M48 52v8m-16-9 7-5m25 5-7-5"/></g><g fill="#60A5FA"><circle cx="48" cy="34" r="5"/><circle cx="27" cy="69" r="5"/><circle cx="69" cy="69" r="5"/></g></svg>
