<svg width="660" height="360" viewBox="0 0 660 360" fill="none" xmlns="http://www.w3.org/2000/svg"><defs><linearGradient id="dg" x1="70" y1="30" x2="590" y2="330"><stop stop-color="#22D3EE"/><stop offset=".5" stop-color="#34D399"/><stop offset="1" stop-color="#8B5CF6"/></linearGradient><filter id="dgg"><feGaussianBlur stdDeviation="12"/></filter></defs><path d="M96 68h108l100 94m-208 18h108l100-18M96 292h108l100-130m52 0 102-48h106m-208 48 102 82h106" stroke="url(#dg)" stroke-width="3" stroke-opacity=".55"/><circle cx="330" cy="162" r="72" fill="#34D399" fill-opacity=".16" filter="url(#dgg)"/><path d="m330 82 69 40v80l-69 40-69-40v-80l69-40Z" fill="#071827" stroke="url(#dg)" stroke-width="2"/><path d="M308 162h44m-22-22v44" stroke="#ECFDF5" stroke-width="6" stroke-linecap="round"/><g fill="#071827" stroke-width="2"><circle cx="96" cy="68" r="22" stroke="#22D3EE"/><circle cx="96" cy="180" r="22" stroke="#F59E0B"/><circle cx="96" cy="292" r="22" stroke="#34D399"/><rect x="542" y="90" width="44" height="44" rx="14" stroke="#A78BFA"/><rect x="542" y="222" width="44" height="44" rx="14" stroke="#34D399"/></g></svg>
