<svg width="720" height="340" viewBox="0 0 720 340" fill="none" xmlns="http://www.w3.org/2000/svg">
  <defs><linearGradient id="node-line" x1="80" y1="80" x2="640" y2="270"><stop stop-color="#22D3EE"/><stop offset=".5" stop-color="#34D399"/><stop offset="1" stop-color="#8B5CF6"/></linearGradient><filter id="node-glow"><feGaussianBlur stdDeviation="8"/></filter></defs>
  <path d="M78 168 207 80l126 89 119-82 190 81-116 103-193-102-125 102L78 168Z" stroke="url(#node-line)" stroke-opacity=".45"/>
  <path d="m207 80 1 191m125-102 119-82m0 0 74 184M78 168l255 1m193 102 116-103" stroke="url(#node-line)" stroke-opacity=".22" stroke-dasharray="5 8"/>
  <g fill="#22D3EE" opacity=".3" filter="url(#node-glow)"><circle cx="78" cy="168" r="17"/><circle cx="333" cy="169" r="20"/><circle cx="642" cy="168" r="17"/></g>
  <g fill="#071827" stroke-width="2"><circle cx="78" cy="168" r="10" stroke="#22D3EE"/><circle cx="207" cy="80" r="8" stroke="#67E8F9"/><circle cx="208" cy="271" r="8" stroke="#34D399"/><circle cx="333" cy="169" r="12" stroke="#34D399"/><circle cx="452" cy="87" r="8" stroke="#A78BFA"/><circle cx="526" cy="271" r="8" stroke="#A78BFA"/><circle cx="642" cy="168" r="10" stroke="#8B5CF6"/></g>
</svg>
