<svg width="520" height="320" viewBox="0 0 520 320" fill="none" xmlns="http://www.w3.org/2000/svg"><defs><linearGradient id="zk" x1="70" y1="30" x2="450" y2="290"><stop stop-color="#C4B5FD"/><stop offset=".5" stop-color="#8B5CF6"/><stop offset="1" stop-color="#22D3EE"/></linearGradient><filter id="zkg"><feGaussianBlur stdDeviation="16"/></filter></defs><ellipse cx="260" cy="164" rx="178" ry="102" fill="#8B5CF6" fill-opacity=".16" filter="url(#zkg)"/><path d="M260 32 407 112v96L260 288 113 208v-96L260 32Z" stroke="url(#zk)" stroke-width="2"/><path d="m260 32 1 256m146-176-294 96m0-96 294 96" stroke="url(#zk)" stroke-opacity=".3"/><circle cx="260" cy="160" r="68" fill="#0F172A" stroke="url(#zk)" stroke-width="2"/><path d="m228 160 22 22 43-48" stroke="#A7F3D0" stroke-width="9" stroke-linecap="round" stroke-linejoin="round"/><g fill="#F5F3FF"><circle cx="260" cy="32" r="6"/><circle cx="407" cy="112" r="6"/><circle cx="407" cy="208" r="6"/><circle cx="260" cy="288" r="6"/><circle cx="113" cy="208" r="6"/><circle cx="113" cy="112" r="6"/></g></svg>
